<svg width="505" height="505" xmlns="http://www.w3.org/2000/svg" version="1.0" preserveAspectRatio="xMidYMid meet">
 <defs>
  <!-- Degradado simétrico: negro → azul → negro -->
  <linearGradient id="svg_6" x1="0%" y1="NaN" x2="100%" y2="NaN">
   <stop offset="0%" stop-color="#000000"/>
   <stop offset="50%" stop-color="#4665c6"/>
   <stop offset="100%" stop-color="#000000"/>
  </linearGradient>
 </defs>
 <metadata>Created by potrace 1.10, written by Peter Selinger 2001-2011</metadata>
 <g>
  <title>Layer 1</title>
  <!-- ⚠️ ESTE ES EL PATH DEL MONITOR – AHORA CON DEGRADADO -->
  <path fill="url(#svg_6)" d="m40.00001,68.09999c-10.2,5.9 -15,12.7 -17.4,24.9c-1.5,7.7 -1.6,17.9 -1.3,107.5c0.3,87.6 0.5,99.6 1.9,104.2c3.7,11.7 10.8,18.8 22.8,22.8c5.2,1.7 8.9,1.8 69.5,0.9c35.2,-0.5 78.4,-0.9 96,-0.9l31.9,0l1.3,2.5c0.9,1.9 1.3,10.5 1.3,33.3c0,37.6 0.6,35.7 -11.4,35.7c-4.4,0 -9.9,0.5 -12.1,1.1c-2.2,0.5 -9.4,1.4 -16,1.9c-31.7,2.5 -64.4,8.7 -85.5,16.2c-10.1,3.6 -12.3,8.2 -7.7,16.3c1.8,3.3 2.9,4.1 5.7,4.3c3.2,0.3 12.3,-1.7 17.5,-3.8c5.1,-2.1 22.8,-7.2 33.5,-9.5c4.1,-0.9 8.9,-2.1 10.5,-2.7c3,-1 8.7,-2.1 21.5,-3.8c3.6,-0.5 15.9,-1.6 27.4,-2.5c19.1,-1.5 22.4,-1.5 39.5,0c10.2,0.8 22.4,2 27.1,2.6c4.7,0.6 12.4,1.4 17.2,1.9c4.8,0.5 9.5,1.3 10.5,1.8c1,0.5 3.6,1.2 5.8,1.6c8.6,1.4 28.8,6.4 38,9.4c19.4,6.3 23.4,6.6 26.8,2c2.6,-3.5 2.8,-11 0.3,-13.7c-1.8,-2 -8.5,-4.6 -19.1,-7.6c-3.3,-0.9 -7.1,-2.1 -8.5,-2.6c-1.4,-0.4 -8.1,-2 -15,-3.5c-28.2,-5.9 -45.4,-8.1 -70,-9.3c-20.9,-0.9 -19,2.6 -19,-35.9c0,-20.4 0.4,-32 1.1,-33.3c1,-2 1.9,-2 99.2,-1.7l98.2,0.3l5.5,-2.7c7.2,-3.6 12,-8.2 15.9,-15.1l3.1,-5.6l0,-108.5l0,-108.5l-2.2,-4.3c-2.9,-5.6 -11.3,-14 -16.7,-16.7l-4.2,-2.2l-105.7,1.2c-58.1,0.7 -116.9,1.4 -130.7,1.7c-13.7,0.2 -34,-0.1 -45,-0.7c-11,-0.6 -46.1,-1.3 -78,-1.6l-58,-0.6l-5.5,3.2zm418.60001,19.5c6.7,3.2 6.4,-2.5 6.4,109.2c0,96.1 -0.1,100.9 -1.9,104.2c-3.7,7 4,6.6 -142.4,7.3c-155.3,0.8 -264.2,-0.3 -269.8,-2.6c-6.9,-3 -6.4,5.3 -6.7,-106.6c-0.2,-69.3 0,-102.8 0.8,-105.2c0.5,-2.1 2.2,-4.5 3.8,-5.5c2.5,-1.8 6.3,-1.9 56.7,-2.5c29.7,-0.3 120.6,-0.4 202,-0.1c125.7,0.3 148.5,0.6 151.1,1.8z" id="svg_2"/>
  <!-- Los demás paths quedan intactos -->
  <path stroke="null" d="m173.65934,105.30455c-0.19727,0.18956 -0.26302,9.96227 -0.26302,42.62926l0,42.39758l0.48221,0.31593c0.43837,0.29487 4.12069,0.33699 34.96008,0.33699c21.85279,0 34.65322,-0.08425 35.00392,-0.21062l0.56988,-0.21062l0,-11.03643c0,-10.7205 -0.02192,-11.07855 -0.41645,-11.28917c-0.28494,-0.14743 -6.92626,-0.21062 -20.01163,-0.21062c-14.94845,0 -19.66094,-0.06319 -19.8582,-0.25274c-0.19727,-0.18956 -0.26302,-7.41378 -0.26302,-31.23478c0,-23.82099 -0.06576,-31.04522 -0.26302,-31.23478c-0.37262,-0.35805 -29.56812,-0.35805 -29.94073,0z" id="svg_3"/>
  <path stroke="#ffffff" stroke-width="0" d="m273.32152,105.00549c-0.33245,0.39481 -0.35323,3.71585 -0.35323,43.08063c0,41.91943 0,42.63937 0.39479,42.89484c0.56101,0.32514 24.62216,0.32514 25.18317,0c0.37401,-0.23224 0.39479,-0.60383 0.39479,-10.63662l0.02078,-10.38116l1.28825,-1.53279c0.70646,-0.83607 2.01548,-2.39208 2.88817,-3.46038c1.3298,-1.60246 1.64148,-1.88115 1.91159,-1.64891c0.16623,0.13935 1.26747,1.71858 2.43105,3.46038c1.18436,1.74181 2.53494,3.71585 2.99206,4.36612c0.45712,0.6735 0.99735,1.43989 1.20514,1.74181c0.22856,0.30191 1.49603,2.18306 2.84661,4.18033c1.37136,1.99727 2.61805,3.7623 2.78428,3.92487c0.187,0.16257 0.33245,0.39481 0.33245,0.51093c0,0.13934 0.24934,0.5806 0.58179,0.99863c0.81035,1.09153 0.97657,1.30055 3.44918,4.94672c1.24669,1.8347 2.43105,3.41394 2.63883,3.53006c0.20778,0.13934 6.39968,0.23224 14.9603,0.23224c11.65657,0.02323 14.64862,-0.04645 14.85641,-0.27869c0.22856,-0.25546 0.08311,-0.55738 -0.76879,-1.69536c-0.99735,-1.347 -6.1919,-8.91804 -6.83602,-9.96312c-0.16623,-0.27869 -0.83113,-1.23087 -1.47525,-2.11339c-1.30903,-1.8347 -5.29844,-7.68716 -6.4828,-9.47542c-0.41556,-0.6735 -0.93502,-1.41667 -1.1428,-1.67213c-0.43634,-0.53415 -4.59198,-6.59563 -5.61011,-8.19809c-0.39479,-0.60383 -1.18436,-1.76503 -1.78692,-2.60109c-0.60257,-0.83606 -1.78692,-2.55465 -2.65961,-3.83197c-0.85191,-1.27732 -2.16093,-3.1817 -2.88817,-4.25c-1.91159,-2.76366 -2.26482,-3.34426 -2.26482,-3.64618c0,-0.13935 0.29089,-0.62705 0.64412,-1.06831c0.33245,-0.44126 1.20514,-1.50956 1.91159,-2.39208c0.70646,-0.90574 1.8077,-2.25273 2.43105,-3.01913c0.64412,-0.78962 1.39214,-1.71858 1.66226,-2.06694c0.29089,-0.37159 0.78957,-0.99863 1.12202,-1.39344c0.31167,-0.41803 1.24669,-1.57924 2.05704,-2.60109c1.3298,-1.67213 2.78428,-3.46038 3.69852,-4.52869c0.187,-0.20902 0.87268,-1.11475 1.53759,-1.99727c0.6649,-0.88251 1.41292,-1.81148 1.64148,-2.06694c0.45712,-0.46448 5.65167,-6.92077 9.35019,-11.58881c1.12202,-1.41667 2.53494,-3.15847 3.13751,-3.85519c0.60257,-0.71995 1.1428,-1.50956 1.18436,-1.74181c0.06233,-0.46448 -0.16623,-0.46448 -13.8175,-0.53415c-11.46956,-0.04645 -13.96294,0 -14.2954,0.27869c-0.22856,0.16257 -1.20514,1.347 -2.20249,2.60109c-0.97657,1.2541 -2.51416,3.1817 -3.38685,4.27323c-0.89346,1.09153 -2.01548,2.48498 -2.49338,3.13525c-0.49868,0.62705 -1.41292,1.78825 -2.05704,2.55465c-0.64412,0.78962 -1.72459,2.13661 -2.41027,3.01913c-1.91159,2.43853 -4.36342,5.5041 -5.11143,6.36339c-0.16623,0.20902 -0.83113,1.04508 -1.45447,1.85792c-0.62335,0.83607 -1.3298,1.71858 -1.55836,1.97404c-0.24934,0.27869 -1.26747,1.55601 -2.26482,2.85656c-1.74537,2.29918 -2.22327,2.74044 -2.4726,2.46175c-0.06233,-0.0929 -0.12467,-7.01367 -0.12467,-15.39755c0,-14.49181 -0.02078,-15.28143 -0.37401,-15.62979c-0.35323,-0.34836 -1.53759,-0.39481 -12.65392,-0.39481c-11.61501,0 -12.27991,0.02322 -12.59159,0.41803z" id="svg_4"/>
  <!-- ... resto igual ... -->
  <text fill="#000000" stroke-width="0" x="480.309" y="143.6251" id="svg_5" font-size="24" font-family="'Commissioner'" text-anchor="start" xml:space="preserve" stroke="#000" transform="matrix(4.26299 0 0 3.94603 -1951.03 -286.544)">Online</text>
 </g>
</svg>