<svg width="1352" height="449" xmlns="http://www.w3.org/2000/svg" preserveAspectRatio="xMidYMid meet" version="1.0">
 <defs>
  <linearGradient y2="NaN" x2="100%" y1="NaN" x1="0%" id="svg_6">
   <stop stop-color="#000000" offset="0%"/>
   <stop stop-color="#4665c6" offset="50%"/>
   <stop stop-color="#000000" offset="100%"/>
  </linearGradient>
 </defs>
 <metadata>Created by potrace 1.10, written by Peter Selinger 2001-2011</metadata>
 <g>
  <title>Link Online</title>
  <!-- âš ï¸ ESTE SVG ES PROPIEDAD DE LINKONLINE.COM.AR -->
  <path id="svg_2" d="m432.00001,52.09999c-10.2,5.9 -15,12.7 -17.4,24.9c-1.5,7.7 -1.6,17.9 -1.3,107.5c0.3,87.6 0.5,99.6 1.9,104.2c3.7,11.7 10.8,18.8 22.8,22.8c5.2,1.7 8.9,1.8 69.5,0.9c35.2,-0.5 78.4,-0.9 96,-0.9l31.9,0l1.3,2.5c0.9,1.9 1.3,10.5 1.3,33.3c0,37.6 0.6,35.7 -11.4,35.7c-4.4,0 -9.9,0.5 -12.1,1.1c-2.2,0.5 -9.4,1.4 -16,1.9c-31.7,2.5 -64.4,8.7 -85.5,16.2c-10.1,3.6 -12.3,8.2 -7.7,16.3c1.8,3.3 2.9,4.1 5.7,4.3c3.2,0.3 12.3,-1.7 17.5,-3.8c5.1,-2.1 22.8,-7.2 33.5,-9.5c4.1,-0.9 8.9,-2.1 10.5,-2.7c3,-1 8.7,-2.1 21.5,-3.8c3.6,-0.5 15.9,-1.6 27.4,-2.5c19.1,-1.5 22.4,-1.5 39.5,0c10.2,0.8 22.4,2 27.1,2.6c4.7,0.6 12.4,1.4 17.2,1.9c4.8,0.5 9.5,1.3 10.5,1.8c1,0.5 3.6,1.2 5.8,1.6c8.6,1.4 28.8,6.4 38,9.4c19.4,6.3 23.4,6.6 26.8,2c2.6,-3.5 2.8,-11 0.3,-13.7c-1.8,-2 -8.5,-4.6 -19.1,-7.6c-3.3,-0.9 -7.1,-2.1 -8.5,-2.6c-1.4,-0.4 -8.1,-2 -15,-3.5c-28.2,-5.9 -45.4,-8.1 -70,-9.3c-20.9,-0.9 -19,2.6 -19,-35.9c0,-20.4 0.4,-32 1.1,-33.3c1,-2 1.9,-2 99.2,-1.7l98.2,0.3l5.5,-2.7c7.2,-3.6 12,-8.2 15.9,-15.1l3.1,-5.6l0,-108.5l0,-108.5l-2.2,-4.3c-2.9,-5.6 -11.3,-14 -16.7,-16.7l-4.2,-2.2l-105.7,1.2c-58.1,0.7 -116.9,1.4 -130.7,1.7c-13.7,0.2 -34,-0.1 -45,-0.7c-11,-0.6 -46.1,-1.3 -78,-1.6l-58,-0.6l-5.5,3.2zm418.60001,19.5c6.7,3.2 6.4,-2.5 6.4,109.2c0,96.1 -0.1,100.9 -1.9,104.2c-3.7,7 4,6.6 -142.4,7.3c-155.3,0.8 -264.2,-0.3 -269.8,-2.6c-6.9,-3 -6.4,5.3 -6.7,-106.6c-0.2,-69.3 0,-102.8 0.8,-105.2c0.5,-2.1 2.2,-4.5 3.8,-5.5c2.5,-1.8 6.3,-1.9 56.7,-2.5c29.7,-0.3 120.6,-0.4 202,-0.1c125.7,0.3 148.5,0.6 151.1,1.8z" fill="url(#svg_6)"/>
  <path id="svg_3" d="m24.2,20.19999c-0.9,0.9 -1.2,47.3 -1.2,202.4l0,201.3l2.2,1.5c2,1.4 18.8,1.6 159.5,1.6c99.7,0 158.1,-0.4 159.7,-1l2.6,-1l0,-52.4c0,-50.9 -0.1,-52.6 -1.9,-53.6c-1.3,-0.7 -31.6,-1 -91.3,-1c-68.2,0 -89.7,-0.3 -90.6,-1.2c-0.9,-0.9 -1.2,-35.2 -1.2,-148.3c0,-113.1 -0.3,-147.4 -1.2,-148.3c-1.7,-1.7 -134.9,-1.7 -136.6,0z"/>
  <path stroke="null" id="svg_4" d="m946.70001,18.96726c-1.6,1.85798 -1.7,17.48684 -1.7,202.73808c0,197.27345 0,200.66152 1.9,201.86374c2.7,1.5301 118.5,1.5301 121.2,0c1.8,-1.09293 1.9,-2.84161 1.9,-50.05609l0.1,-48.85387l6.2,-7.21332c3.4,-3.93454 9.7,-11.25716 13.9,-16.28462c6.4,-7.5412 7.9,-8.85271 9.2,-7.75979c0.8,0.65576 6.1,8.08766 11.7,16.28462c5.7,8.19696 12.2,17.48684 14.4,20.54704c2.2,3.16949 4.8,6.77615 5.8,8.19696c1.1,1.42081 7.2,10.27352 13.7,19.6727c6.6,9.39918 12.6,17.70543 13.4,18.47048c0.9,0.76505 1.6,1.85798 1.6,2.40444c0,0.65576 1.2,2.73232 2.8,4.69959c3.9,5.13676 4.7,6.12039 16.6,23.27936c6,8.63413 11.7,16.06604 12.7,16.6125c1,0.65576 30.8,1.09293 72,1.09293c56.1,0.10929 70.5,-0.21859 71.5,-1.31151c1.1,-1.20222 0.4,-2.62303 -3.7,-7.97837c-4.8,-6.33898 -29.8,-41.96842 -32.9,-46.8866c-0.8,-1.31151 -4,-5.79252 -7.1,-9.94564c-6.3,-8.63413 -25.5,-36.17591 -31.2,-44.59145c-2,-3.16949 -4.5,-6.66686 -5.5,-7.86908c-2.1,-2.51373 -22.1,-31.03915 -27,-38.58035c-1.9,-2.84161 -5.7,-8.30625 -8.6,-12.24079c-2.9,-3.93454 -8.6,-12.0222 -12.8,-18.03331c-4.1,-6.0111 -10.4,-14.97311 -13.9,-20.00058c-9.2,-13.00584 -10.9,-15.73816 -10.9,-17.15896c0,-0.65576 1.4,-2.9509 3.1,-5.02747c1.6,-2.07656 5.8,-7.10403 9.2,-11.25716c3.4,-4.26242 8.7,-10.6014 11.7,-14.20806c3.1,-3.71595 6.7,-8.08766 8,-9.72706c1.4,-1.74868 3.8,-4.69959 5.4,-6.55757c1.5,-1.96727 6,-7.43191 9.9,-12.24079c6.4,-7.86908 13.4,-16.28462 17.8,-21.31209c0.9,-0.98363 4.2,-5.24605 7.4,-9.39918c3.2,-4.15313 6.8,-8.52484 7.9,-9.72706c2.2,-2.18586 27.2,-32.56924 45,-54.53709c5.4,-6.66686 12.2,-14.86382 15.1,-18.1426c2.9,-3.38808 5.5,-7.10403 5.7,-8.19696c0.3,-2.18586 -0.8,-2.18586 -66.5,-2.51373c-55.2,-0.21859 -67.2,0 -68.8,1.31151c-1.1,0.76505 -5.8,6.33898 -10.6,12.24079c-4.7,5.90181 -12.1,14.97311 -16.3,20.10987c-4.3,5.13676 -9.7,11.69433 -12,14.75452c-2.4,2.9509 -6.8,8.41554 -9.9,12.0222c-3.1,3.71595 -8.3,10.05493 -11.6,14.20806c-9.2,11.47574 -21,25.90239 -24.6,29.94622c-0.8,0.98363 -4,4.91817 -7,8.74342c-3,3.93454 -6.4,8.08766 -7.5,9.28989c-1.2,1.31151 -6.1,7.32262 -10.9,13.44301c-8.4,10.81998 -10.7,12.89655 -11.9,11.58503c-0.3,-0.43717 -0.6,-33.00642 -0.6,-72.4611c0,-68.19869 -0.1,-71.91464 -1.8,-73.55403c-1.7,-1.63939 -7.4,-1.85798 -60.9,-1.85798c-55.9,0 -59.1,0.10929 -60.6,1.96727z"/>
  <text transform="matrix(5.19205 0 0 4.93138 -1998.07 -413.034)" stroke="#000" xml:space="preserve" text-anchor="start" font-family="'Commissioner'" font-size="24" id="svg_5" y="130.17779" x="473.13764" stroke-width="0" fill="#000000">Online</text>
 </g>
</svg>